<?xml version="1.0" encoding="utf-8"?>
<!-- Generator: Adobe Illustrator 21.0.0, SVG Export Plug-In . SVG Version: 6.00 Build 0)  -->
<svg version="1.1" id="Layer_1" xmlns="http://www.w3.org/2000/svg" xmlns:xlink="http://www.w3.org/1999/xlink" x="0px" y="0px"
	 viewBox="0 0 256 256" enable-background="new 0 0 256 256" xml:space="preserve">
<rect fill="#A05C94" width="256" height="256"/>
<g>
	<rect x="17.015" y="55.482" opacity="0.7" fill="#73467A" width="66" height="52.098"/>
	<rect x="17.015" y="117.987" opacity="0.7" fill="#73467A" width="66" height="52.099"/>
	<rect x="95.501" y="55.482" opacity="0.7" fill="#73467A" width="66.001" height="52.098"/>
	<rect x="95.501" y="117.987" opacity="0.7" fill="#73467A" width="66.001" height="52.099"/>
	<rect x="173.986" y="55.482" opacity="0.7" fill="#73467A" width="66" height="52.098"/>
	<rect x="173.986" y="117.987" opacity="0.7" fill="#73467A" width="66" height="52.099"/>
	<rect x="20.018" y="58.652" fill="#FFFFFF" width="59.994" height="46.092"/>
	<rect x="98.518" y="58.652" fill="#FFFFFF" width="59.994" height="46.092"/>
	<rect x="176.852" y="58.652" fill="#FFFFFF" width="59.994" height="46.092"/>
	<rect x="20.018" y="120.988" fill="#FFFFFF" width="59.994" height="46.092"/>
	<rect x="98.518" y="120.988" fill="#FFFFFF" width="59.994" height="46.092"/>
	<rect x="176.852" y="120.988" fill="#FFFFFF" width="59.994" height="46.092"/>
	<rect x="17.015" y="179.99" opacity="0.7" fill="#73467A" width="66" height="52.099"/>
	<rect x="173.986" y="179.99" opacity="0.7" fill="#73467A" width="66" height="52.099"/>
	<rect x="20.018" y="182.991" opacity="0.7" fill="#73467A" width="59.994" height="46.092"/>
	<rect x="176.852" y="182.991" opacity="0.7" fill="#73467A" width="59.994" height="46.092"/>
	<path fill-rule="evenodd" clip-rule="evenodd" fill="#A05C94" d="M41.497,90.864c0,0,4.481,1.027,8.72,1.027
		c0,0,5.147,0.121,8.721-0.966L55.95,75.341l5.955,2.96c0,0,0.498,0.437,0.908-0.03c0.23-0.276,2.016-2.876,2.783-4.145
		c0.362-0.61-0.028-0.657-0.028-0.657l-6.57-3.866c0,0-0.787-0.967-2.968-0.967h-1.877c0,0,0.061,3.896-3.937,3.896
		c0,0-3.937-0.242-3.876-3.896h-1.877c0,0-2.241,0.182-3.028,0.967l-6.581,3.836c0,0-0.272,0.332,0.03,0.906l2.796,3.987
		c0,0,0.484,0.393,0.999-0.061l5.491-2.869L41.497,90.864z"/>
	<path fill-rule="evenodd" clip-rule="evenodd" fill="#A05C94" d="M120.447,92.12c0,0,3.711,1.136,8.268,1.136
		c0,0,4.558,0.033,8.398-1.136l0.011-15.584l4.156,2.11c0,0,0.535,0.47,0.976-0.032c0.247-0.297,2.167-3.092,2.992-4.457
		c0.389-0.656-0.03-0.706-0.03-0.706l-7.063-4.156c0,0-0.847-1.039-3.191-1.039h-2.018c0,0,0.064,4.188-4.232,4.188
		c0,0-4.231-0.26-4.166-4.188h-2.019c0,0-2.409,0.195-3.255,1.039l-6.223,3.627l-0.852,0.496c0,0-0.293,0.357,0.033,0.975
		l3.006,4.286c0,0,0.488,0.422,1.042-0.065l4.178-2.078L120.447,92.12z"/>
	<path fill-rule="evenodd" clip-rule="evenodd" fill="#A05C94" d="M38.102,146.245c-0.506,0.446-0.952,0.06-0.952,0.06l-2.747-3.924
		c-0.297-0.564-0.03-0.892-0.03-0.892l0.779-0.455L38.102,146.245z M36.072,140.497l4.767-2.783
		c0.774-0.772,2.976-0.951,2.976-0.951h1.845c-0.06,3.597,3.809,3.834,3.809,3.834c3.928,0,3.868-3.834,3.868-3.834h1.845
		c2.142,0,2.916,0.951,2.916,0.951l4.756,2.803l-2.871,5.265l-2.827-1.438l-0.009,14.27c-3.511,1.069-7.677,1.04-7.677,1.04
		c-4.166,0-7.558-1.04-7.558-1.04l0.01-14.27l-2.914,1.452L36.072,140.497z M60.954,146.275c0,0,0.489,0.431,0.893-0.03
		c0.227-0.271,1.981-2.83,2.735-4.08c0.355-0.6-0.027-0.646-0.027-0.646l-0.712-0.419L60.954,146.275z"/>
	<path fill-rule="evenodd" clip-rule="evenodd" fill="#A05C94" d="M218.657,144.81l-0.011,13.781
		c-3.641,1.107-9.934,0.995-9.934,0.995c-4.319,0-9.811-0.995-9.811-0.995l0.011-13.781c2.036-1.015,2.895-2.961,2.895-2.961
		l0.058-7.835h1.912c0,2.493-0.042,5.975,0.983,6.82c1.168,2.15,3.963,1.977,3.963,1.977c1.848,0,3.188-1.041,3.909-2.051
		c1.256-1.757,1.078-6.746,1.078-6.746h1.913l0.063,7.985C215.686,141.999,216.713,143.795,218.657,144.81z"/>
</g>
<g>
	<rect x="122.521" y="19.501" fill="#A05C94" width="117.477" height="91.506"/>
	<polygon fill="#FFFFFF" points="230.16,29.517 224.245,36.825 218.33,29.517 	"/>
	<path fill="#FFFFFF" d="M122.521,19.501v91.506h117.477V19.501H122.521z M236.995,108.004H125.524v-85.5h111.471V108.004z"/>
	<rect x="136.854" y="49.167" fill="#73467A" width="88.393" height="7.001"/>
	<rect x="125.604" y="62.502" fill="#FFFFFF" width="111.477" height="19.667"/>
	<rect x="136.854" y="29.917" fill="#73467A" width="68.893" height="7.001"/>
	<rect x="136.854" y="68.5" fill="#73467A" width="88.393" height="7.001"/>
	<rect x="136.854" y="88.498" fill="#73467A" width="88.393" height="7.001"/>
</g>
<rect x="17" y="20" fill="#73467A" width="93.333" height="8.667"/>
<g>
	<g>
		<path fill="#FFFFFF" d="M118.313,211.864c-0.469,0-0.869-0.072-1.201-0.217c-0.332-0.145-0.604-0.34-0.814-0.586
			c-0.211-0.246-0.365-0.535-0.463-0.867c-0.098-0.332-0.146-0.686-0.146-1.061v-0.375h1.5c0,0.375,0.023,0.684,0.07,0.926
			s0.117,0.434,0.211,0.574c0.094,0.141,0.211,0.238,0.352,0.293c0.141,0.055,0.305,0.082,0.492,0.082s0.352-0.027,0.492-0.082
			c0.141-0.055,0.258-0.152,0.352-0.293c0.094-0.141,0.164-0.332,0.211-0.574c0.047-0.242,0.07-0.551,0.07-0.926
			c0-0.281-0.025-0.537-0.076-0.768c-0.051-0.23-0.135-0.428-0.252-0.592c-0.117-0.164-0.271-0.291-0.463-0.381
			c-0.191-0.09-0.428-0.135-0.709-0.135v-1.5c0.281,0,0.518-0.025,0.709-0.076c0.191-0.051,0.346-0.135,0.463-0.252
			c0.117-0.117,0.201-0.271,0.252-0.463c0.051-0.191,0.076-0.428,0.076-0.709c0-0.281-0.023-0.518-0.07-0.709
			c-0.047-0.191-0.117-0.346-0.211-0.463c-0.094-0.117-0.211-0.201-0.352-0.252c-0.141-0.051-0.305-0.076-0.492-0.076
			s-0.352,0.027-0.492,0.082c-0.141,0.055-0.258,0.152-0.352,0.293c-0.094,0.141-0.164,0.332-0.211,0.574
			c-0.047,0.242-0.07,0.551-0.07,0.926h-1.5v-0.375c0-0.375,0.049-0.729,0.146-1.061c0.098-0.332,0.252-0.621,0.463-0.867
			c0.211-0.246,0.482-0.441,0.814-0.586c0.332-0.145,0.732-0.217,1.201-0.217c0.469,0,0.869,0.072,1.201,0.217
			c0.332,0.145,0.604,0.34,0.814,0.586c0.211,0.246,0.365,0.535,0.463,0.867c0.098,0.332,0.146,0.686,0.146,1.061
			s-0.05,0.694-0.149,0.958c-0.1,0.264-0.225,0.483-0.375,0.659c-0.15,0.176-0.313,0.313-0.486,0.413
			c-0.174,0.1-0.337,0.173-0.489,0.22c0.152,0.051,0.315,0.132,0.489,0.243c0.174,0.111,0.336,0.268,0.486,0.469
			c0.15,0.201,0.275,0.458,0.375,0.77c0.1,0.313,0.149,0.693,0.149,1.143c0,0.469-0.049,0.895-0.146,1.277
			c-0.098,0.383-0.252,0.709-0.463,0.979c-0.211,0.27-0.482,0.479-0.814,0.627C119.182,211.79,118.781,211.864,118.313,211.864z"/>
		<path fill="#FFFFFF" d="M124.875,211.864c-0.336,0-0.662-0.058-0.979-0.173c-0.316-0.115-0.597-0.298-0.841-0.548
			c-0.244-0.25-0.439-0.571-0.586-0.964c-0.146-0.393-0.22-0.866-0.22-1.421v-4.5c0-0.473,0.048-0.877,0.144-1.213
			c0.096-0.336,0.22-0.619,0.372-0.85c0.152-0.23,0.324-0.414,0.516-0.551c0.191-0.137,0.385-0.242,0.58-0.316
			s0.382-0.122,0.56-0.144c0.178-0.021,0.329-0.032,0.454-0.032s0.276,0.011,0.454,0.032c0.178,0.021,0.364,0.069,0.56,0.144
			c0.195,0.074,0.389,0.18,0.58,0.316c0.191,0.137,0.363,0.32,0.516,0.551c0.152,0.23,0.276,0.514,0.372,0.85
			c0.096,0.336,0.144,0.74,0.144,1.213v4.5c0,0.555-0.073,1.028-0.22,1.421c-0.146,0.393-0.342,0.714-0.586,0.964
			c-0.244,0.25-0.524,0.433-0.841,0.548C125.537,211.807,125.211,211.864,124.875,211.864z M124.875,210.634
			c0.164,0,0.307-0.031,0.428-0.094s0.223-0.145,0.305-0.246c0.082-0.102,0.149-0.219,0.202-0.352
			c0.053-0.133,0.093-0.269,0.12-0.407c0.027-0.139,0.046-0.275,0.056-0.41c0.01-0.135,0.015-0.257,0.015-0.366v-4.5
			c0-0.113-0.003-0.238-0.009-0.375c-0.006-0.137-0.021-0.274-0.047-0.413s-0.062-0.273-0.108-0.404
			c-0.047-0.131-0.112-0.247-0.196-0.349c-0.084-0.102-0.188-0.183-0.313-0.243c-0.125-0.061-0.275-0.091-0.451-0.091
			c-0.176,0-0.326,0.03-0.451,0.091c-0.125,0.061-0.229,0.142-0.313,0.243c-0.084,0.102-0.149,0.218-0.196,0.349
			c-0.047,0.131-0.083,0.266-0.108,0.404c-0.025,0.139-0.041,0.276-0.047,0.413c-0.006,0.137-0.009,0.262-0.009,0.375v4.5
			c0,0.109,0.005,0.231,0.015,0.366c0.01,0.135,0.028,0.271,0.056,0.41c0.027,0.139,0.067,0.274,0.12,0.407
			c0.053,0.133,0.12,0.25,0.202,0.352c0.082,0.102,0.184,0.184,0.305,0.246S124.711,210.634,124.875,210.634z"/>
		<path fill="#FFFFFF" d="M128.707,205.712c0-0.434,0.039-0.805,0.117-1.113c0.078-0.309,0.18-0.568,0.305-0.779
			c0.125-0.211,0.267-0.379,0.425-0.504s0.316-0.22,0.475-0.284c0.158-0.064,0.31-0.106,0.454-0.126
			c0.145-0.02,0.268-0.029,0.369-0.029c0.102,0,0.225,0.01,0.369,0.029c0.145,0.02,0.297,0.061,0.457,0.126
			c0.16,0.064,0.319,0.159,0.478,0.284c0.158,0.125,0.3,0.293,0.425,0.504c0.125,0.211,0.227,0.471,0.305,0.779
			c0.078,0.309,0.117,0.68,0.117,1.113c0,0.52-0.061,0.961-0.182,1.324c-0.121,0.363-0.282,0.66-0.483,0.891
			c-0.201,0.23-0.431,0.398-0.689,0.504c-0.258,0.105-0.523,0.158-0.797,0.158c-0.273,0-0.539-0.053-0.797-0.158
			c-0.258-0.105-0.486-0.273-0.686-0.504c-0.199-0.23-0.359-0.527-0.48-0.891C128.768,206.673,128.707,206.231,128.707,205.712z
			 M130.072,205.712c0,0.102,0.004,0.216,0.012,0.343c0.008,0.127,0.022,0.255,0.044,0.384c0.021,0.129,0.051,0.254,0.088,0.375
			c0.037,0.121,0.085,0.229,0.144,0.325c0.059,0.096,0.128,0.172,0.208,0.229c0.08,0.057,0.175,0.085,0.284,0.085
			c0.164,0,0.298-0.061,0.401-0.182c0.104-0.121,0.184-0.271,0.24-0.451c0.057-0.18,0.095-0.369,0.114-0.568
			c0.02-0.199,0.029-0.379,0.029-0.539c0-0.156-0.008-0.332-0.023-0.527s-0.051-0.38-0.105-0.554
			c-0.055-0.174-0.134-0.319-0.237-0.437c-0.103-0.117-0.243-0.176-0.419-0.176c-0.172,0-0.31,0.059-0.413,0.176
			c-0.103,0.117-0.183,0.263-0.237,0.437c-0.055,0.174-0.09,0.358-0.105,0.554C130.08,205.38,130.072,205.556,130.072,205.712z
			 M134.309,202.864h1.283l-1.652,8.895h-1.289L134.309,202.864z M135.211,208.876c0-0.434,0.039-0.805,0.117-1.113
			c0.078-0.309,0.18-0.567,0.305-0.776s0.267-0.376,0.425-0.501c0.158-0.125,0.316-0.22,0.475-0.284
			c0.158-0.064,0.31-0.107,0.454-0.126c0.145-0.02,0.268-0.029,0.369-0.029c0.102,0,0.225,0.01,0.369,0.029s0.297,0.062,0.457,0.126
			c0.16,0.064,0.319,0.159,0.478,0.284c0.158,0.125,0.3,0.292,0.425,0.501s0.227,0.468,0.305,0.776
			c0.078,0.309,0.117,0.68,0.117,1.113c0,0.519-0.061,0.962-0.182,1.327c-0.121,0.365-0.282,0.663-0.483,0.894
			c-0.201,0.23-0.431,0.398-0.688,0.504c-0.258,0.105-0.523,0.158-0.797,0.158c-0.273,0-0.539-0.053-0.797-0.158
			s-0.486-0.273-0.686-0.504c-0.199-0.23-0.359-0.528-0.48-0.894C135.271,209.838,135.211,209.395,135.211,208.876z
			 M136.576,208.876c0,0.156,0.01,0.335,0.029,0.536c0.02,0.201,0.058,0.391,0.114,0.568c0.057,0.178,0.136,0.328,0.237,0.451
			c0.102,0.123,0.234,0.185,0.398,0.185c0.164,0,0.298-0.061,0.401-0.182c0.104-0.121,0.184-0.271,0.24-0.448
			c0.057-0.178,0.095-0.367,0.114-0.568c0.02-0.201,0.029-0.382,0.029-0.542c0-0.156-0.008-0.332-0.023-0.527
			c-0.016-0.195-0.051-0.379-0.105-0.551c-0.055-0.172-0.134-0.316-0.237-0.434c-0.104-0.117-0.243-0.176-0.419-0.176
			c-0.172,0-0.31,0.059-0.413,0.176c-0.104,0.117-0.183,0.262-0.237,0.434c-0.055,0.172-0.09,0.355-0.105,0.551
			C136.584,208.544,136.576,208.72,136.576,208.876z"/>
	</g>
	<g>
		<path fill="#73467A" d="M144.44,205.041c0.072,0.645,0.109,1.302,0.109,1.968c0,2.039-0.346,3.982-0.979,5.794
			c-0.633,1.812-1.556,3.488-2.714,4.977l5.483,4.271c1.615-2.074,2.905-4.417,3.791-6.953c0.887-2.534,1.368-5.262,1.368-8.088
			c0-0.924-0.052-1.837-0.151-2.736L144.44,205.041z M117.117,192.504c1.408-0.962,2.961-1.723,4.62-2.242
			c1.658-0.521,3.422-0.803,5.263-0.803c0.37,0,0.736,0.012,1.101,0.034l0.428-6.938c-0.506-0.031-1.016-0.047-1.528-0.047
			c-2.552-0.001-5.023,0.392-7.345,1.12c-2.322,0.729-4.494,1.794-6.459,3.136L117.117,192.504z M110.162,202.041
			c0.557-1.89,1.422-3.646,2.542-5.215c1.12-1.569,2.493-2.947,4.057-4.072l-4.061-5.642c-2.181,1.57-4.091,3.488-5.652,5.676
			c-1.562,2.186-2.773,4.645-3.553,7.29L110.162,202.041z M110.822,213.824c-0.883-2.094-1.372-4.389-1.372-6.815
			c0-1.579,0.208-3.102,0.595-4.55l-6.714-1.796c-0.543,2.026-0.831,4.156-0.831,6.346c-0.001,3.365,0.683,6.589,1.918,9.518
			L110.822,213.824L110.822,213.824z M118.798,222.528c-3.434-1.817-6.199-4.754-7.803-8.307l-6.335,2.859
			c2.246,4.971,6.088,9.047,10.884,11.589L118.798,222.528z M130.48,224.214c-1.123,0.226-2.285,0.345-3.48,0.345
			c-2.819-0.001-5.461-0.659-7.815-1.831l-3.099,6.221c3.286,1.639,7.004,2.562,10.914,2.561c1.656,0,3.279-0.165,4.85-0.48
			L130.48,224.214z M140.585,218.12c-1.217,1.485-2.672,2.768-4.306,3.788c-1.633,1.02-3.442,1.776-5.374,2.215l1.539,6.778
			c2.703-0.614,5.237-1.675,7.517-3.099c2.279-1.424,4.306-3.209,6.001-5.278L140.585,218.12z"/>
		<g>
			<path fill="#FFFFFF" d="M139.255,194.446c1.365,1.333,2.515,2.886,3.389,4.598c0.874,1.713,1.474,3.584,1.744,5.566l6.886-0.939
				c-0.377-2.768-1.218-5.393-2.439-7.785c-1.222-2.394-2.823-4.557-4.726-6.413L139.255,194.446z"/>
			<path fill="#FFFFFF" d="M128.535,189.525c2.005,0.173,3.905,0.682,5.658,1.47c1.751,0.788,3.354,1.857,4.746,3.151l4.729-5.093
				c-1.939-1.802-4.174-3.294-6.624-4.396c-2.449-1.104-5.117-1.815-7.911-2.057L128.535,189.525z"/>
		</g>
	</g>
</g>
<path fill="#A05C94" d="M114.752,144.381c1.039-0.046,2.073-0.024,3.089,0.239c2.68,0.693,4.346,2.457,5.319,5.013
	c-2.05,0.42-4.086,0.654-6.181,0.362c-0.029,0.292-0.054,0.554-0.083,0.85c0.143,0,0.25,0,0.357,0c7.484,0,14.968,0,22.453,0
	c0.998,0,1.887-0.281,2.603-1.007c0.101-0.103,0.188-0.219,0.283-0.331c-0.592,0.151-1.161,0.37-1.745,0.427
	c-0.94,0.093-1.895,0.157-2.835,0.096c-2.468-0.161-4.93-0.399-7.395-0.599c-1.84-0.149-3.68-0.315-5.525-0.079
	c-0.212,0.027-0.289-0.046-0.359-0.238c-0.791-2.139-2.052-3.912-4.045-5.097c-1.689-1.004-3.533-1.37-5.478-1.311
	c-0.09,0.003-0.179,0.003-0.269,0.004c-0.009,0-0.018-0.006-0.083-0.031c0.063-0.363,0.115-0.741,0.195-1.113
	c0.338-1.588,0.962-3.049,1.886-4.392c0.51-0.741,1.333-0.519,1.639,0.156c0.58,1.282,1.702,1.962,3.037,2.241
	c0.705,0.148,1.444,0.132,2.167,0.195c0.184,0.016,0.225-0.082,0.261-0.242c0.249-1.087,0.491-2.176,0.779-3.253
	c0.106-0.398,0.295-0.787,0.512-1.139c0.454-0.737,1.189-0.912,1.86-0.372c0.584,0.47,1.093,1.044,1.586,1.615
	c0.389,0.451,0.645,1.027,1.066,1.438c0.417,0.407,0.973,0.668,1.458,1.008c0.431,0.302,0.847,0.626,1.29,0.955
	c-0.604,0.672-1.189,1.324-1.774,1.975c-0.14,0.156-0.284,0.309-0.42,0.468c-0.35,0.41-0.334,0.904,0.035,1.223
	c0.357,0.308,0.849,0.264,1.199-0.121c0.731-0.806,1.456-1.616,2.182-2.426c0.053-0.059,0.1-0.123,0.155-0.191
	c0.415,0.235,0.802,0.455,1.214,0.688c-0.052,0.101-0.096,0.197-0.148,0.288c-0.465,0.825-0.936,1.647-1.396,2.474
	c-0.259,0.466-0.133,0.954,0.291,1.189c0.415,0.23,0.875,0.083,1.144-0.368c0.051-0.085,0.1-0.173,0.149-0.259
	c0.436-0.772,0.872-1.545,1.309-2.317c0.049-0.086,0.1-0.171,0.159-0.274c0.562,0.212,1.114,0.43,1.673,0.629
	c1.591,0.566,3.235,0.926,4.884,1.269c0.318,0.066,0.628,0.194,0.924,0.333c0.651,0.306,1.042,0.839,1.241,1.521
	c0,0.22,0,0.439,0,0.659c-0.122,0.408-0.28,0.809-0.359,1.225c-0.223,1.169-0.632,2.247-1.456,3.128
	c-1.059,1.131-2.393,1.609-3.921,1.609c-7.833,0-15.667,0-23.5,0c-0.05,0-0.1,0.001-0.15-0.001c-0.562-0.023-0.89-0.366-0.861-0.923
	c0.019-0.358,0.053-0.716,0.099-1.072c0.094-0.744,0.155-1.48-0.111-2.211c-0.097-0.268-0.128-0.563-0.169-0.849
	c-0.085-0.581-0.156-1.163-0.234-1.745C114.752,145.26,114.752,144.821,114.752,144.381z M126.637,136.349
	c-0.05-0.001-0.1-0.003-0.15-0.004c-0.264,1.042-0.528,2.084-0.809,3.195c0.964-0.248,1.803-0.54,2.46-1.284
	C127.631,137.611,127.134,136.98,126.637,136.349z"/>
</svg>
